<mxfile host="Electron" agent="Mozilla/5.0 (Macintosh; Intel Mac OS X 10_15_7) AppleWebKit/537.36 (KHTML, like Gecko) draw.io/24.7.17 Chrome/128.0.6613.36 Electron/32.0.1 Safari/537.36" version="24.7.17">
  <diagram name="Page-1" id="uDZd-fwo3PlODORpPFO2">
    <mxGraphModel dx="1114" dy="821" grid="1" gridSize="10" guides="1" tooltips="1" connect="1" arrows="1" fold="1" page="1" pageScale="1" pageWidth="827" pageHeight="1169" math="0" shadow="0">
      <root>
        <mxCell id="0" />
        <mxCell id="1" parent="0" />
        <mxCell id="p0nXpV_FupVDxdRSmlHM-1" value="&lt;div style=&quot;background-color:#ffffff;color:#080808&quot;&gt;&lt;pre style=&quot;font-family:&#39;IBM Plex Mono&#39;,monospace;font-size:9.8pt;&quot;&gt;&lt;span style=&quot;color:#0033b3;&quot;&gt;interface &lt;/span&gt;&lt;span style=&quot;color:#000000;&quot;&gt;Transformer&lt;/span&gt;&lt;span style=&quot;color:#3f9101;&quot;&gt;&amp;lt;&lt;/span&gt;&lt;span style=&quot;color:#007e8a;&quot;&gt;T&lt;/span&gt;&lt;span style=&quot;color:#3f9101;&quot;&gt;&amp;gt; {&lt;br&gt;&lt;/span&gt;&lt;span style=&quot;color:#3f9101;&quot;&gt;    &lt;/span&gt;&lt;span style=&quot;color:#0033b3;&quot;&gt;fun &lt;/span&gt;&lt;span style=&quot;color:#00627a;&quot;&gt;trans&lt;/span&gt;&lt;span style=&quot;color:#3f9101;&quot;&gt;(&lt;/span&gt;&lt;span style=&quot;color:#000000;&quot;&gt;t&lt;/span&gt;: &lt;span style=&quot;color:#007e8a;&quot;&gt;T&lt;/span&gt;&lt;span style=&quot;color:#3f9101;&quot;&gt;)&lt;/span&gt;: &lt;span style=&quot;color:#007e8a;&quot;&gt;T&lt;br&gt;&lt;/span&gt;&lt;span style=&quot;color:#3f9101;&quot;&gt;}&lt;/span&gt;&lt;/pre&gt;&lt;/div&gt;" style="text;whiteSpace=wrap;html=1;" vertex="1" parent="1">
          <mxGeometry x="130" y="100" width="240" height="100" as="geometry" />
        </mxCell>
        <mxCell id="p0nXpV_FupVDxdRSmlHM-3" value="" style="shape=curlyBracket;whiteSpace=wrap;html=1;rounded=1;labelPosition=left;verticalLabelPosition=middle;align=right;verticalAlign=middle;rotation=-90;" vertex="1" parent="1">
          <mxGeometry x="260" y="151" width="20" height="20" as="geometry" />
        </mxCell>
        <mxCell id="p0nXpV_FupVDxdRSmlHM-5" value="" style="shape=curlyBracket;whiteSpace=wrap;html=1;rounded=1;labelPosition=left;verticalLabelPosition=middle;align=right;verticalAlign=middle;rotation=-90;" vertex="1" parent="1">
          <mxGeometry x="289" y="151" width="20" height="20" as="geometry" />
        </mxCell>
        <mxCell id="p0nXpV_FupVDxdRSmlHM-6" value="in" style="text;html=1;align=center;verticalAlign=middle;whiteSpace=wrap;rounded=0;" vertex="1" parent="1">
          <mxGeometry x="256" y="170" width="30" height="20" as="geometry" />
        </mxCell>
        <mxCell id="p0nXpV_FupVDxdRSmlHM-7" value="out" style="text;html=1;align=center;verticalAlign=middle;whiteSpace=wrap;rounded=0;" vertex="1" parent="1">
          <mxGeometry x="287" y="170" width="30" height="20" as="geometry" />
        </mxCell>
      </root>
    </mxGraphModel>
  </diagram>
</mxfile>
